<svg width="1384" height="217" viewBox="0 0 1384 217" fill="none" xmlns="http://www.w3.org/2000/svg">
<path d="M136.224 88.992L63.072 89.28C61.056 89.28 59.904 91.584 60.768 93.312L87.552 135.936H110.304L95.328 141.984V169.344H53.568C49.824 168.768 46.944 165.312 46.944 161.28V53.856L33.696 46.656H120.96L147.744 4.03198C148.608 2.30399 147.456 -1.71661e-05 145.44 -1.71661e-05H26.784C24.768 -1.71661e-05 22.752 0.575993 21.024 2.01599L3.168 16.704C1.152 18.432 0 21.024 0 23.616V195.552C0 198.144 1.152 200.736 3.168 202.464L16.992 213.984C18.72 215.424 20.736 216 22.752 216H120.96C122.688 216 124.416 215.136 125.856 213.984L140.544 198.144C141.696 196.992 142.272 195.264 142.272 193.536V95.04C142.272 91.584 139.68 88.992 136.224 88.992ZM311.848 57.024C311.848 54.144 310.696 51.552 308.68 50.112L290.824 35.136C289.096 33.696 287.08 33.12 285.064 33.12H162.376C160.36 33.12 158.92 35.424 160.072 37.152L181.096 80.064H253.672C259.72 80.064 264.616 84.96 264.616 91.008V94.464L276.136 99.36H185.128C183.112 99.36 181.096 99.936 179.368 101.376L161.8 116.352C159.496 117.792 158.344 120.384 158.344 122.976V195.552C158.344 198.432 159.496 200.736 161.512 202.464L175.336 213.984C177.064 215.424 179.08 216 181.096 216H289.096C291.112 216 293.128 215.424 294.856 213.984L308.68 202.464C310.696 200.736 311.848 198.432 311.848 195.552V57.024ZM264.616 169.344H213.64C209.032 169.344 205.288 165.6 205.288 160.992V154.08C205.288 149.76 208.744 146.304 213.352 146.304H264.616V169.344ZM542.351 48.672L526.511 35.136C525.071 33.984 523.343 33.12 521.615 33.12H447.023C445.007 33.12 442.127 33.984 440.399 35.136L432.911 41.472L425.423 35.136C423.983 33.984 421.679 33.12 419.663 33.12H345.647C343.631 33.12 341.903 33.984 340.463 35.136L324.623 48.672C322.895 50.112 322.031 52.416 322.031 54.72V216H368.687V91.008C368.687 90.432 368.975 90.144 368.975 89.856L355.151 80.064H402.095C407.855 80.064 412.751 84.96 412.751 91.008V216H456.239V91.008C456.239 84.96 461.135 80.064 467.183 80.064H487.343C493.391 80.064 498.287 84.96 498.287 91.008V216H545.231V54.72C545.231 52.416 544.079 50.112 542.351 48.672ZM681.908 149.76C683.924 149.76 685.94 149.184 687.668 147.744L705.524 133.056C707.54 131.328 708.692 128.736 708.692 126.144V53.568C708.692 50.976 707.54 48.384 705.524 46.656L691.7 35.136C690.26 33.984 688.244 33.12 685.94 33.12H577.94C575.924 33.12 573.908 33.984 572.468 35.136L558.644 46.656C556.628 48.384 555.188 50.976 555.188 53.568L555.476 192.384C555.476 194.976 556.628 197.568 558.644 199.296L576.5 213.984C577.94 215.424 579.956 216 582.26 216H704.948C706.964 216 708.116 213.984 706.964 211.968L686.228 169.344H613.652C607.316 169.344 602.42 164.16 602.42 158.112V149.76H681.908ZM588.596 80.064H653.684C658.004 80.064 661.748 83.808 661.748 88.416V94.752C661.748 99.072 658.292 102.816 653.972 103.104H602.42V85.536L588.596 80.064ZM859.419 94.752H800.667V-1.71661e-05H721.755C719.739 -1.71661e-05 718.299 2.59198 719.451 4.32L745.947 47.232H754.011H768.699L754.011 53.28V94.752H728.379C726.939 94.752 725.787 96.48 726.651 97.92L748.251 137.088H754.011V216H800.667V137.088H859.419H875.547L859.419 144V216H906.363V-1.71661e-05H859.419V94.752ZM1020.86 33.12V162.432L1034.1 169.632L970.169 169.344C966.137 168.48 963.545 165.312 963.545 161.28V33.12H916.601L916.312 195.84C916.312 198.432 917.465 201.024 919.481 202.752L933.305 214.272C935.033 215.712 937.049 216.288 939.065 216.288H939.641C939.929 216.288 939.929 216.288 939.929 216.288H1042.46C1043.61 216.288 1045.34 215.424 1046.2 214.56C1046.49 214.56 1064.63 199.584 1064.63 199.584C1066.65 197.856 1067.8 195.264 1067.8 192.672V33.12H1020.86ZM1193.24 33.12H1101.37C1099.64 33.12 1097.62 33.984 1096.18 35.136L1080.63 48.672C1078.9 50.112 1077.75 52.416 1077.75 54.72V216H1124.69V80.064H1186.33L1173.08 87.264V88.128V216H1197.27C1199.29 216 1201.3 215.424 1203.03 213.984L1216.85 202.464C1218.87 200.736 1220.02 198.432 1220.02 195.552V57.024C1220.02 54.144 1218.87 51.84 1216.85 50.112L1199 35.136C1197.27 33.984 1195.25 33.12 1193.24 33.12ZM1380.24 46.656L1366.7 35.136C1364.97 33.984 1362.96 33.12 1360.94 33.12H1252.94C1250.64 33.12 1248.91 33.984 1247.18 35.136L1233.36 46.656C1231.34 48.384 1230.19 50.976 1230.19 53.568V80.064H1285.77V216.288H1332.72V84.96L1322.35 80.064H1332.72H1383.69V53.568C1383.69 50.976 1382.54 48.384 1380.24 46.656Z" fill="url(#paint0_linear_1_2)"/>
<defs>
<linearGradient id="paint0_linear_1_2" x1="697.5" y1="-8" x2="697.5" y2="396" gradientUnits="userSpaceOnUse">
<stop stop-color="#0023D8"/>
<stop offset="0.727083" stop-color="#FC5B5B"/>
</linearGradient>
</defs>
</svg>
